{"title":"Old.Fashioned.2014.720p.WEB-DL.DD5.1.H264-RARBG","uid":12035099,"size":3700218099,"categoryP":"video","categoryS":"hd___movies","magnet":"?xt=urn:btih:e43d9bffef5895a1cfadf9d7d121892def1945ce&amp;dn=Old.Fashioned.2014.720p.WEB-DL.DD5.1.H264-RARBG&amp;tr=udp%3A%2F%2Ftracker.openbittorrent.com%3A80&amp;tr=udp%3A%2F%2Fopen.demonii.com%3A1337&amp;tr=udp%3A%2F%2Ftracker.coppersurfer.tk%3A6969&amp;tr=udp%3A%2F%2Fexodus.desync.com%3A6969","seeders":0,"leechers":0,"uploader":"vickey1992","files":5,"time":1434674773,"description":" Video\nID                                       : 1\nFormat                                   : AVC\nFormat/Info                              : Advanced Video Codec\nFormat profile                           : &lt;a class=&quot;__cf_email__&quot; href=&quot;/cdn-cgi/l/email-protection&quot; data-cfemail=&quot;357d5c525d7579061b04&quot;&gt;[email&amp;#160;protected]&lt;/a&gt;&lt;script data-cfhash='f9e31' type=&quot;text/javascript&quot;&gt;\n/* &lt;![CDATA[ */!function(){try{var t=&quot;currentScript&quot;in document?document.currentScript:function(){for(var t=document.getElementsByTagName(&quot;script&quot;),e=t.length;e--;)if(t[e].getAttribute(&quot;data-cfhash&quot;))return t[e]}();if(t&amp;&amp;t.previousSibling){var e,r,n,i,c=t.previousSibling,a=c.getAttribute(&quot;data-cfemail&quot;);if(a){for(e=&quot;&quot;,r=parseInt(a.substr(0,2),16),n=2;a.length-n;n+=2)i=parseInt(a.substr(n,2),16)^r,e+=String.fromCharCode(i);e=document.createTextNode(e),c.parentNode.replaceChild(e,c)}t.parentNode.removeChild(t);}}catch(u){}}()/* ]]&gt; */&lt;/script&gt;\nFormat settings, CABAC                   : No\nFormat settings, ReFrames                : 2 frames\nCodec ID                                 : V_MPEG4/ISO/AVC\nDuration                                 : 1h 54mn\nBit rate                                 : 3 843 Kbps\nWidth                                    : 1 280 pixels\nHeight                                   : 718 pixels\nDisplay aspect ratio                     : 16:9\nFrame rate mode                          : Constant\nFrame rate                               : 23.976 fps\nColor space                              : YUV\nChroma subsampling                       : 4:2:0\nBit depth                                : 8 bits\nScan type                                : Progressive\nBits/(Pixel*Frame)                       : 0.174\nStream size                              : 3.07 GiB (89%)\nTitle                                    : Old.Fashioned.2014.720p.WEB-DL.DD5.1.H264-RARBG\nLanguage                                 : English\nDefault                                  : Yes\nForced                                   : No\nColor range                              : Limited\nColor primaries                          : BT.709\nTransfer characteristics                 : BT.709\nMatrix coefficients                      : BT.709\n\nAudio\nID                                       : 2\nFormat                                   : AC-3\nFormat/Info                              : Audio Coding 3\nMode extension                           : CM (complete main)\nFormat settings, Endianness              : Big\nCodec ID                                 : A_AC3\nDuration                                 : 1h 54mn\nBit rate mode                            : Constant\nBit rate                                 : 384 Kbps\nChannel(s)                               : 6 channels\nChannel positions                        : Front: L C R, Side: L R, LFE\nSampling rate                            : 48.0 KHz\nBit depth                                : 16 bits\nCompression mode                         : Lossy\nStream size                              : 314 MiB (9%)\nTitle                                    : Old.Fashioned.2014.720p.WEB-DL.DD5.1.H264-RARBG\nLanguage                                 : English\nDefault                                  : Yes\nForced                                   : No\n\nText\nID                                       : 3\nFormat                                   : UTF-8\nCodec ID                                 : S_TEXT/UTF8\nCodec ID/Info                            : UTF-8 Plain Text\nLanguage                                 : English\nDefault                                  : No\nForced                                   : No\n\nMenu\n00:00:00.000                             : en:Chapter 1\n00:05:15.000                             : en:Chapter 2\n00:09:36.000                             : en:Chapter 3\n00:13:45.000                             : en:Chapter 4\n00:19:20.000                             : en:Chapter 5\n00:22:34.000                             : en:Chapter 6\n00:27:56.000                             : en:Chapter 7\n00:32:33.000                             : en:Chapter 8\n00:36:24.000                             : en:Chapter 9\n00:41:26.000                             : en:Chapter 10\n00:46:14.000                             : en:Chapter 11\n00:53:26.000                             : en:Chapter 12\n01:01:00.000                             : en:Chapter 13\n01:08:22.000                             : en:Chapter 14\n01:16:17.000                             : en:Chapter 15\n01:23:04.000                             : en:Chapter 16\n01:29:57.000                             : en:Chapter 17\n01:33:08.000                             : en:Chapter 18\n01:38:58.000                             : en:Chapter 19\n01:43:18.000                             : en:Chapter 20\n01:50:53.000                             : en:Chapter 21","torrent":{"xt":"urn:btih:e43d9bffef5895a1cfadf9d7d121892def1945ce","amp;dn":"Old.Fashioned.2014.720p.WEB-DL.DD5.1.H264-RARBG","amp;tr":["udp%3A%2F%2Ftracker.openbittorrent.com%3A80","udp%3A%2F%2Fopen.demonii.com%3A1337","udp%3A%2F%2Ftracker.coppersurfer.tk%3A6969","udp%3A%2F%2Fexodus.desync.com%3A6969"],"infoHash":"e43d9bffef5895a1cfadf9d7d121892def1945ce","infoHashBuffer":{"type":"Buffer","data":[228,61,155,255,239,88,149,161,207,173,249,215,209,33,137,45,239,25,69,206]},"announce":[],"urlList":[]}}